<svg width="30" height="30" viewBox="0 0 30 30" fill="none" xmlns="http://www.w3.org/2000/svg">
<path d="M22.6577 17.8362C20.5726 17.8362 18.8762 19.5325 18.8762 21.6177C18.8762 23.7029 20.5726 25.3992 22.6577 25.3992C24.7433 25.3992 26.4393 23.7029 26.4393 21.6177C26.4393 19.5325 24.7429 17.8362 22.6577 17.8362ZM22.6577 23.5085C21.615 23.5085 20.767 22.6604 20.767 21.6177C20.767 20.575 21.615 19.7269 22.6577 19.7269C23.7005 19.7269 24.5485 20.575 24.5485 21.6177C24.5485 22.6605 23.7005 23.5085 22.6577 23.5085Z" fill="#A5A5A5"/>
<path d="M9.73733 17.8362C7.65216 17.8362 5.95581 19.5325 5.95581 21.6177C5.95581 23.7029 7.65216 25.3992 9.73733 25.3992C11.8225 25.3992 13.5189 23.7029 13.5189 21.6177C13.5189 19.5325 11.8225 17.8362 9.73733 17.8362ZM9.73733 23.5085C8.6946 23.5085 7.84657 22.6604 7.84657 21.6177C7.84657 20.575 8.6946 19.7269 9.73733 19.7269C10.7798 19.7269 11.6281 20.575 11.6281 21.6177C11.6281 22.6605 10.7801 23.5085 9.73733 23.5085Z" fill="#A5A5A5"/>
<path d="M25.204 7.01218C25.0433 6.69296 24.7165 6.49158 24.3591 6.49158H19.3801V8.38234H23.7761L26.3504 13.5025L28.0401 12.6529L25.204 7.01218Z" fill="#A5A5A5"/>
<path d="M19.8216 20.7036H12.6682V22.5944H19.8216V20.7036Z" fill="#A5A5A5"/>
<path d="M6.90108 20.7036H3.62382C3.10163 20.7036 2.67847 21.1268 2.67847 21.649C2.67847 22.1712 3.10169 22.5943 3.62382 22.5943H6.90114C7.42333 22.5943 7.84649 22.1711 7.84649 21.649C7.84649 21.1268 7.42327 20.7036 6.90108 20.7036Z" fill="#A5A5A5"/>
<path d="M29.8013 14.9243L27.9418 12.5294C27.7631 12.2987 27.4874 12.1638 27.1952 12.1638H20.3255V5.54618C20.3255 5.02399 19.9023 4.60083 19.3801 4.60083H3.62382C3.10163 4.60083 2.67847 5.02405 2.67847 5.54618C2.67847 6.06831 3.10169 6.49153 3.62382 6.49153H18.4347V13.1092C18.4347 13.6314 18.8579 14.0545 19.3801 14.0545H26.7323L28.1091 15.828V20.7037H25.4935C24.9713 20.7037 24.5482 21.1269 24.5482 21.649C24.5482 22.1712 24.9714 22.5944 25.4935 22.5944H29.0544C29.5766 22.5944 29.9998 22.1712 29.9998 21.649V15.5042C29.9998 15.2943 29.9299 15.0901 29.8013 14.9243Z" fill="#A5A5A5"/>
<path d="M6.83831 15.9138H2.48954C1.96735 15.9138 1.54419 16.337 1.54419 16.8592C1.54419 17.3814 1.96741 17.8045 2.48954 17.8045H6.83825C7.36044 17.8045 7.7836 17.3813 7.7836 16.8592C7.78366 16.337 7.36044 15.9138 6.83831 15.9138Z" fill="#A5A5A5"/>
<path d="M9.0126 12.1954H0.945352C0.423223 12.1954 0 12.6187 0 13.1408C0 13.663 0.423223 14.0862 0.945352 14.0862H9.0126C9.53479 14.0862 9.95795 13.663 9.95795 13.1408C9.95795 12.6187 9.53479 12.1954 9.0126 12.1954Z" fill="#A5A5A5"/>
<path d="M10.5568 8.47693H2.48954C1.96735 8.47693 1.54419 8.90015 1.54419 9.42228C1.54419 9.94447 1.96741 10.3676 2.48954 10.3676H10.5568C11.079 10.3676 11.5021 9.94441 11.5021 9.42228C11.5022 8.90015 11.079 8.47693 10.5568 8.47693Z" fill="#A5A5A5"/>
</svg>
